<?xml version="1.0" encoding="UTF-8" standalone="no"?><!DOCTYPE svg PUBLIC "-//W3C//DTD SVG 1.1//EN" "http://www.w3.org/Graphics/SVG/1.1/DTD/svg11.dtd"><svg width="100%" height="100%" viewBox="9.84 7.2 365.04 82.32" version="1.1" xmlns="http://www.w3.org/2000/svg" xmlns:xlink="http://www.w3.org/1999/xlink" xml:space="preserve" xmlns:serif="http://www.serif.com/" style="fill-rule:evenodd;clip-rule:evenodd;stroke-linejoin:round;stroke-miterlimit:2;"><rect x="9.84" y="7.2" width="365.04" height="82.32" style="fill:#811007;"/><path d="M45.669,23.35l0,33.912l33.984,-33.912l3.744,0l-20.952,20.88l20.88,29.232l-3.168,0l-19.584,-27.36l-14.904,14.904l0,12.456l-2.664,0l0,-50.112l2.664,0Z" style="fill:#fff;fill-rule:nonzero;"/><path d="M113.637,23.35l2.808,0l20.592,50.112l-2.88,0l-6.768,-16.56l-24.696,0l-6.84,16.56l-2.808,0l20.592,-50.112Zm-9.864,30.96l22.536,0l-11.304,-27.504l-11.232,27.504Z" style="fill:#fff;fill-rule:nonzero;"/><path d="M184.557,23.35l0,2.664l-14.976,0l0,44.784l14.976,0l0,2.664l-32.472,0l0,-2.664l14.904,0l0,-44.784l-14.904,0l0,-2.664l32.472,0Z" style="fill:#fff;fill-rule:nonzero;"/><path d="M220.269,73.462l0,-37.44l-18.936,0l0,-12.672l40.464,0l0,12.672l-18.936,0l0,37.44l-2.592,0Z" style="fill:#fff;fill-rule:nonzero;"/><path d="M273.477,23.35l2.808,0l20.592,50.112l-2.88,0l-6.768,-16.56l-24.696,0l-6.84,16.56l-2.808,0l20.592,-50.112Zm-9.864,30.96l22.536,0l-11.304,-27.504l-11.232,27.504Z" style="fill:#fff;fill-rule:nonzero;"/><path d="M344.397,23.35l0,2.664l-14.976,0l0,44.784l14.976,0l0,2.664l-32.472,0l0,-2.664l14.904,0l0,-44.784l-14.904,0l0,-2.664l32.472,0Z" style="fill:#fff;fill-rule:nonzero;"/></svg>